<svg fill="#ffffff" viewBox="0 0 16 16" xmlns="http://www.w3.org/2000/svg"><g id="SVGRepo_bgCarrier" stroke-width="0"></g><g id="SVGRepo_tracerCarrier" stroke-linecap="round" stroke-linejoin="round"></g><g id="SVGRepo_iconCarrier"> <g> <path d="M13,3.05A7,7,0,1,0,13,13,7,7,0,0,0,13,3.05ZM12,12A5.6,5.6,0,0,1,4,12,5.61,5.61,0,0,1,4,4,5.6,5.6,0,0,1,12,4,5.61,5.61,0,0,1,12,12ZM10.65,4.08,8,6.73,5.35,4.08,4.08,5.35,6.73,8,4.08,10.65l1.27,1.27L8,9.27l2.65,2.65,1.27-1.27L9.27,8l2.65-2.65Z"></path> </g> </g></svg>